<svg width="89" height="89" viewBox="0 0 89 89" fill="none" xmlns="http://www.w3.org/2000/svg">
<path d="M88.9441 44.01L86.0068 38.0364L87.1564 31.4797L82.6515 26.5787L81.8924 19.967L76.1828 16.5402L73.5975 10.4071L67.1564 8.71839L62.9539 3.55886L56.2983 3.75688L50.8032 0L44.472 2.0682L38.1409 0L32.6458 3.75688L25.9902 3.55886L21.7877 8.71839L15.3466 10.4071L12.7613 16.5402L7.05172 19.967L6.29264 26.5787L1.78768 31.4797L2.9373 38.0364L0 44.01L2.9373 49.9836L1.78768 56.5403L6.29264 61.4413L7.05172 68.053L12.7613 71.4798L15.3466 77.6129L21.7877 79.3016L25.9902 84.4611L32.6458 84.2631L38.1409 88.02L44.472 85.9518L50.8032 88.02L56.2983 84.2631L62.9539 84.4611L67.1564 79.3016L73.5975 77.6129L76.1828 71.4798L81.8924 68.053L82.6515 61.4413L87.1564 56.5403L86.0068 49.9836L88.9441 44.01ZM44.472 81.9419C23.5259 81.9419 6.54567 64.9616 6.54567 44.0155C6.54567 23.0694 23.5259 6.08911 44.472 6.08911C65.4182 6.08911 82.3984 23.0694 82.3984 44.0155C82.3984 64.9616 65.4182 81.9419 44.472 81.9419Z" fill="#FF4D4D"/>
<path d="M44.4724 80.5113C64.6318 80.5113 80.9742 64.1689 80.9742 44.0095C80.9742 23.8502 64.6318 7.50781 44.4724 7.50781C24.3131 7.50781 7.9707 23.8502 7.9707 44.0095C7.9707 64.1689 24.3131 80.5113 44.4724 80.5113Z" stroke="#FF4D4D" stroke-width="0.550056" stroke-miterlimit="10"/>
<path d="M44.4725 78.7732C25.3031 78.7732 9.70898 63.1791 9.70898 44.0096C9.70898 24.8402 25.3031 9.24609 44.4725 9.24609C63.642 9.24609 79.2361 24.8402 79.2361 44.0096C79.2361 63.1791 63.6365 78.7732 44.4725 78.7732Z" stroke="#FF4D4D" stroke-width="0.825084" stroke-linecap="round" stroke-linejoin="round" stroke-dasharray="0.05 0.05"/>
<path fill-rule="evenodd" clip-rule="evenodd" d="M63.805 61.0761C64.9198 68.1358 58.5921 73.3636 51.4449 73.3636H44.2438C36.5348 73.3636 28.9434 69.6101 26.8519 62.1903C20.9255 41.1653 29.2697 13.0761 51.2171 15.1039C49.5661 16.5732 47.5026 20.4567 46.7803 25.4947C48.5224 27.3024 48.3991 28.3674 46.7803 30.3229C48.2192 32.2338 47.9561 33.1786 46.2644 34.7312V39.2445C49.1534 41.0288 47.5026 42.3933 47.5026 44.3875C52.4554 54.9884 58.4401 58.4521 63.805 61.0761ZM33.0569 68.1084C26.4532 48.9008 25.7004 34.4789 36.6684 21.9261C27.8257 36.1046 29.136 50.1603 36.2556 68.1084H33.0569Z" fill="#FF4D4D"/>
<path fill-rule="evenodd" clip-rule="evenodd" d="M55.654 15.8384C65.0437 29.2733 67.7265 47.2214 62.4641 57.6124C59.4718 57.2975 47.7391 47.8882 54.2094 44.8073L54.7253 40.8188C53.2808 40.0841 53.2808 37.775 55.1381 37.2502C54.2094 36.2006 54.2094 34.1014 55.654 33.3667C56.0641 26.5256 56.0458 22.6755 55.654 15.8384ZM60.5036 52.3644C62.4641 43.5478 63.3447 38.9211 60.5036 29.3782C64.297 37.946 64.2669 42.8617 61.7418 53.519L60.5036 52.3644Z" fill="#FF4D4D"/>
</svg>
